<svg width="61px" height="61px" viewBox="1115 590 61 61" version="1.1" xmlns="http://www.w3.org/2000/svg" xmlns:xlink="http://www.w3.org/1999/xlink">
    <!-- Generator: Sketch 41.1 (35376) - http://www.bohemiancoding.com/sketch -->
    <desc>Created with Sketch.</desc>
    <defs></defs>
    <g id="Group" stroke="none" stroke-width="1" fill="none" fill-rule="evenodd" transform="translate(1115.000000, 590.000000)">
        <path d="M54.092,60.213632 L6.022,60.213632 C5.502,60.213632 5.078,59.7887455 5.078,59.2676583 L5.078,28.0505257 C5.078,27.5294385 5.5,27.104552 6.022,27.104552 L54.092,27.104552 C54.612,27.104552 55.036,27.5274343 55.036,28.0505257 L55.036,59.2676583 C55.036,59.7927539 54.614,60.213632 54.092,60.213632 L54.092,60.213632 Z M6.966,58.3236888 L53.148,58.3236888 L53.148,28.9964994 L6.966,28.9964994 L6.966,58.3236888 L6.966,58.3236888 Z" id="Shape" fill="#8E44AD"></path>
        <path d="M59.116,28.9944952 L1,28.9944952 C0.48,28.9944952 0.056,28.5716129 0.056,28.0485215 L0.056,14.5243041 C0.056,14.0032168 0.478,13.5783303 1,13.5783303 L59.114,13.5783303 C59.634,13.5783303 60.056,14.0012127 60.056,14.5243041 L60.056,28.0485215 C60.058,28.5696087 59.636,28.9944952 59.116,28.9944952 L59.116,28.9944952 Z M1.944,27.1025478 L58.172,27.1025478 L58.172,15.4682736 L1.944,15.4682736 L1.944,27.1025478 L1.944,27.1025478 Z" id="Shape" fill="#8E44AD"></path>
        <path d="M20.012,60.213632 C19.492,60.213632 19.068,59.7887455 19.068,59.2676583 L19.068,14.5263082 C19.068,14.005221 19.49,13.5803345 20.012,13.5803345 C20.534,13.5803345 20.956,14.0032168 20.956,14.5263082 L20.956,59.2676583 C20.956,59.7927539 20.534,60.213632 20.012,60.213632 L20.012,60.213632 Z" id="Shape" fill="#8E44AD"></path>
        <path d="M40.102,60.213632 C39.582,60.213632 39.158,59.7887455 39.158,59.2676583 L39.158,14.5263082 C39.158,14.005221 39.58,13.5803345 40.102,13.5803345 C40.624,13.5803345 41.046,14.0032168 41.046,14.5263082 L41.046,59.2676583 C41.044,59.7927539 40.622,60.213632 40.102,60.213632 L40.102,60.213632 Z" id="Shape" fill="#8E44AD"></path>
        <path d="M34.368,15.4702778 C32.842,15.4702778 31.532,14.9792533 30.578,14.049313 C29.618,13.1053435 29.11,11.8106422 29.112,10.3014934 C29.112,7.97063023 30.356,5.36519415 32.434,3.32894564 C34.508,1.30071386 37.16,0.0881839904 39.532,0.0881839904 C41.06,0.0881839904 42.372,0.581212664 43.324,1.51516129 C44.282,2.45512246 44.79,3.74982378 44.79,5.25496416 C44.79,7.58783154 43.548,10.1952718 41.47,12.2275119 C39.396,14.2617563 36.742,15.4702778 34.368,15.4702778 L34.368,15.4702778 Z M39.532,1.98013142 C37.642,1.98013142 35.482,2.98823477 33.752,4.68176822 C32.03,6.36928913 31.002,8.47167563 31.002,10.3055018 C31.002,10.9949403 31.158,11.9689725 31.9,12.6984946 C32.646,13.4300209 33.656,13.5823387 34.37,13.5823387 C36.26,13.5823387 38.422,12.5742354 40.152,10.8807019 C41.874,9.19518519 42.902,7.09480287 42.902,5.25897252 C42.902,4.57153823 42.746,3.59550179 42.004,2.86798387 C41.256,2.13445341 40.248,1.98013142 39.532,1.98013142 L39.532,1.98013142 Z" id="Shape" fill="#8E44AD"></path>
        <path d="M25.746,15.4702778 C23.374,15.4702778 20.718,14.2597521 18.646,12.2315203 C16.568,10.2012843 15.328,7.59584827 15.326,5.2609767 C15.324,3.74982378 15.83,2.45512246 16.79,1.51315711 C17.744,0.581212664 19.054,0.090188172 20.582,0.090188172 C22.954,0.090188172 25.608,1.30271804 27.682,3.33094982 C29.76,5.36318996 31,7.97063023 31.002,10.3034976 C31.002,11.8126464 30.496,13.1073477 29.538,14.0473088 C28.582,14.9812575 27.272,15.4702778 25.746,15.4702778 L25.746,15.4702778 Z M20.58,1.98013142 C19.866,1.98013142 18.856,2.13445341 18.108,2.86597969 C17.366,3.59349761 17.21,4.56953405 17.212,5.2609767 C17.212,7.09680705 18.242,9.19718937 19.962,10.8807019 C21.692,12.5722312 23.854,13.5823387 25.746,13.5823387 C26.458,13.5823387 27.468,13.4300209 28.22,12.6964904 C28.96,11.9689725 29.116,10.9969444 29.114,10.3055018 C29.114,8.46766726 28.086,6.36728495 26.364,4.68176822 C24.632,2.99023895 22.472,1.98013142 20.58,1.98013142 L20.58,1.98013142 Z" id="Shape" fill="#8E44AD"></path>
    </g>
</svg>