<svg width="74px" height="56px" viewBox="168 0 74 56" version="1.1" xmlns="http://www.w3.org/2000/svg" xmlns:xlink="http://www.w3.org/1999/xlink">
    <!-- Generator: Sketch 41.1 (35376) - http://www.bohemiancoding.com/sketch -->
    <desc>Created with Sketch.</desc>
    <defs></defs>
    <path d="M178.2,43.8 C178,43.8 177.8,43.8 177.7,43.7 C177.4,43.5 177.2,43.2 177.2,42.8 L177.3,35.3 L170.9,35.3 C169.3,35.3 168,34 168,32.4 L168,2.9 C168,1.3 169.3,0 170.9,0 L216.5,0 C218.1,0 219.4,1.3 219.4,2.9 L219.4,32.3 C219.4,33.9 218.1,35.2 216.5,35.2 L195.1,35.2 L178.6,43.6 C178.5,43.7 178.3,43.8 178.2,43.8 L178.2,43.8 Z M170.8,2 C170.3,2 169.9,2.4 169.9,2.9 L169.9,32.3 C169.9,32.8 170.3,33.2 170.8,33.2 L178.2,33.2 C178.5,33.2 178.7,33.3 178.9,33.5 C179.1,33.7 179.2,33.9 179.2,34.2 L179.1,41.1 L194.4,33.4 C194.5,33.3 194.7,33.3 194.9,33.3 L216.4,33.3 C216.9,33.3 217.3,32.9 217.3,32.4 L217.3,2.9 C217.3,2.4 216.9,2 216.4,2 L170.8,2 L170.8,2 Z" id="Shape" stroke="none" fill="#8E44AD" fill-rule="evenodd"></path>
    <path d="M202.004052,18.3 L185.004052,18.3 C184.604052,18.3 184.204052,18.1 184.104052,17.7 C183.904052,17.3 184.004052,16.9 184.304052,16.6 L190.604052,10.3 C191.004052,9.9 191.604052,9.9 192.004052,10.3 C192.404052,10.7 192.404052,11.3 192.004052,11.7 L187.404052,16.3 L202.004052,16.3 C202.604052,16.3 203.004052,16.7 203.004052,17.3 C203.004052,17.9 202.504052,18.3 202.004052,18.3 L202.004052,18.3 Z" id="Shape" stroke="none" fill="#8E44AD" fill-rule="evenodd"></path>
    <path d="M232.9,55.1 C232.7,55.1 232.6,55.1 232.4,55 L219,48.2 L201.6,48.2 C200.2,48.2 199,47.1 199,45.6 L199,40.8 C199,40.2 199.4,39.8 200,39.8 C200.6,39.8 201,40.2 201,40.8 L201,45.6 C201,45.9 201.3,46.2 201.6,46.2 L219.2,46.2 C219.4,46.2 219.5,46.2 219.7,46.3 L231.9,52.5 L231.9,47.2 C231.9,46.9 232,46.7 232.2,46.5 C232.4,46.3 232.6,46.2 232.9,46.2 L238.9,46.2 C239.2,46.2 239.5,45.9 239.5,45.6 L239.5,21.6 C239.5,21.3 239.2,21 238.9,21 L224.8,21 C224.2,21 223.8,20.6 223.8,20 C223.8,19.4 224.2,19 224.8,19 L238.9,19 C240.3,19 241.5,20.1 241.5,21.6 L241.5,45.6 C241.5,47 240.4,48.2 238.9,48.2 L233.9,48.2 L233.9,54.1 C233.9,54.4 233.7,54.8 233.4,55 C233.3,55 233.1,55.1 232.9,55.1 L232.9,55.1 Z" id="Shape" stroke="none" fill="#8E44AD" fill-rule="evenodd"></path>
    <path d="M191.2,24.2 C190.9,24.2 190.7,24.1 190.5,23.9 L184.3,17.7 C183.9,17.3 183.9,16.7 184.3,16.3 C184.7,15.9 185.3,15.9 185.7,16.3 L191.9,22.5 C192.3,22.9 192.3,23.5 191.9,23.9 C191.7,24.1 191.4,24.2 191.2,24.2 L191.2,24.2 Z" id="Shape" stroke="none" fill="#8E44AD" fill-rule="evenodd"></path>
</svg>